REM MD5 270cf60cfb01c51aa132d4779aaae2a5
FILE "Broken Sword II - Las Fuerzas del Mal (Spain).bin" BINARY
  TRACK 01 MODE2/2352
    INDEX 01 00:00:00
  TRACK 02 AUDIO
    INDEX 00 55:40:20
    INDEX 01 55:42:20
  TRACK 03 AUDIO
    INDEX 00 58:20:25
    INDEX 01 58:22:25
REM LEADOUT 61:39:56
